<svg width="200" height="36" viewBox="0 0 200 36" fill="none" xmlns="http://www.w3.org/2000/svg">
<path d="M200 17.4027C200 18.7528 199.804 20.017 199.411 21.1953C199.043 22.3736 198.466 23.4046 197.68 24.2883C196.919 25.172 195.962 25.8716 194.808 26.3871C193.654 26.878 192.317 27.1235 190.795 27.1235C189.248 27.1235 187.898 26.878 186.744 26.3871C185.615 25.8716 184.658 25.172 183.872 24.2883C183.111 23.4046 182.534 22.3736 182.142 21.1953C181.773 20.017 181.589 18.7528 181.589 17.4027C181.589 16.0526 181.773 14.7884 182.142 13.6101C182.534 12.4318 183.111 11.4008 183.872 10.5171C184.658 9.63341 185.615 8.94608 186.744 8.45513C187.898 7.93963 189.248 7.68188 190.795 7.68188C192.317 7.68188 193.654 7.93963 194.808 8.45513C195.962 8.94608 196.919 9.63341 197.68 10.5171C198.466 11.4008 199.043 12.4318 199.411 13.6101C199.804 14.7884 200 16.0526 200 17.4027ZM188.254 17.4027C188.254 20.4466 188.463 22.7663 188.88 24.3619C189.297 25.9575 189.936 26.7553 190.795 26.7553C191.654 26.7553 192.292 25.9575 192.709 24.3619C193.127 22.7663 193.335 20.4466 193.335 17.4027C193.335 14.3588 193.127 12.0391 192.709 10.4435C192.292 8.84789 191.654 8.0501 190.795 8.0501C189.936 8.0501 189.297 8.84789 188.88 10.4435C188.463 12.0391 188.254 14.3588 188.254 17.4027Z" fill="#C80000"/>
<path d="M163.17 26.9762C163.464 26.9271 163.747 26.8167 164.017 26.6448C164.238 26.4976 164.434 26.2889 164.606 26.0189C164.802 25.7243 164.901 25.3316 164.901 24.8406V11.99C164.901 11.499 164.802 11.1185 164.606 10.8485C164.434 10.5539 164.238 10.333 164.017 10.1857C163.747 10.0139 163.464 9.90344 163.17 9.85434C164.52 9.65796 165.784 9.43703 166.963 9.19156C167.453 9.09337 167.944 8.9829 168.435 8.86017C168.926 8.73743 169.38 8.61469 169.798 8.49195C170.24 8.36922 170.62 8.24648 170.939 8.12374C171.258 7.97646 171.492 7.82917 171.639 7.68188V12.395C171.884 11.4868 172.228 10.7381 172.67 10.1489C173.136 9.55977 173.627 9.09337 174.143 8.7497C174.683 8.40604 175.223 8.17284 175.763 8.0501C176.327 7.90281 176.843 7.82917 177.309 7.82917C178.267 7.82917 179.028 8.11147 179.592 8.67606C180.181 9.24065 180.476 9.91571 180.476 10.7012C180.476 11.4622 180.23 12.1373 179.739 12.7264C179.249 13.3155 178.438 13.6101 177.309 13.6101C176.818 13.6101 176.34 13.4874 175.873 13.2419C175.407 12.9964 174.953 12.7509 174.511 12.5055C174.094 12.2355 173.713 12.0145 173.369 11.8427C173.026 11.6709 172.719 11.6709 172.449 11.8427C172.203 11.99 172.007 12.3582 171.86 12.9473C171.712 13.5119 171.639 14.4079 171.639 15.6353V24.8774C171.639 25.3684 171.725 25.7489 171.897 26.0189C172.093 26.2889 172.289 26.4976 172.486 26.6448C172.731 26.8167 173.013 26.9271 173.333 26.9762H163.17Z" fill="#C80000"/>
<path d="M159.768 7.9396H162.419V8.23417H159.768L159.731 22.1894C159.731 22.9013 159.817 23.4782 159.989 23.92C160.186 24.3373 160.468 24.546 160.836 24.546C161.131 24.546 161.364 24.4355 161.536 24.2146C161.634 24.1164 161.708 24.006 161.757 23.8832L162.051 24.0673C161.781 24.6565 161.425 25.172 160.983 25.6138C160.615 26.0066 160.124 26.3625 159.511 26.6816C158.897 26.9762 158.16 27.1235 157.301 27.1235C156.565 27.1235 155.927 26.9639 155.387 26.6448C154.847 26.3011 154.392 25.8716 154.024 25.3561C153.68 24.816 153.423 24.2023 153.251 23.515C153.079 22.8277 152.993 22.1158 152.993 21.3794V8.23417H152.956H150.747V7.9396H151.299C152.625 7.9396 153.803 7.64503 154.834 7.05589C155.89 6.46675 156.786 5.81624 157.522 5.10436C158.381 4.26975 159.13 3.31239 159.768 2.2323V7.9396Z" fill="#C80000"/>
<path d="M134.845 12.8737C134.845 11.1554 135.496 9.86662 136.797 9.00745C138.098 8.12374 139.791 7.68188 141.878 7.68188C143.081 7.68188 144.136 7.74325 145.045 7.86599C145.953 7.98873 146.726 8.11147 147.364 8.23421C148.101 8.38149 148.739 8.55332 149.279 8.7497L149.169 14.3097H149.058C148.764 13.1805 148.334 12.1618 147.769 11.2536C147.524 10.8608 147.242 10.4803 146.923 10.1121C146.628 9.74388 146.272 9.41249 145.855 9.11792C145.462 8.82335 145.02 8.59014 144.529 8.41831C144.038 8.24648 143.498 8.16056 142.909 8.16056C142.492 8.16056 142.074 8.29557 141.657 8.5656C141.264 8.81107 141.068 9.30202 141.068 10.0384C141.068 10.8485 141.289 11.5358 141.731 12.1004C142.197 12.665 142.774 13.1805 143.461 13.6469C144.173 14.1133 144.922 14.5675 145.707 15.0093C146.517 15.4512 147.266 15.9544 147.954 16.519C148.665 17.0836 149.242 17.7464 149.684 18.5073C150.151 19.2438 150.384 20.1643 150.384 21.2689C150.384 23.2573 149.647 24.7424 148.174 25.7243C146.726 26.7062 144.738 27.1972 142.209 27.1972C141.105 27.1972 140.086 27.1113 139.153 26.9394C138.245 26.743 137.472 26.5344 136.833 26.3135C136.048 26.0434 135.361 25.7489 134.771 25.4297V19.4647H134.882C135.373 20.8394 135.962 22.0545 136.649 23.11C136.944 23.5519 137.275 23.9937 137.644 24.4356C138.012 24.8774 138.429 25.2702 138.895 25.6139C139.362 25.933 139.865 26.203 140.405 26.4239C140.945 26.6203 141.534 26.7185 142.173 26.7185C142.369 26.7185 142.578 26.6939 142.799 26.6448C143.019 26.5712 143.228 26.4607 143.424 26.3135C143.621 26.1662 143.78 25.9821 143.903 25.7611C144.05 25.5157 144.124 25.2211 144.124 24.8774C144.124 24.0919 143.891 23.4046 143.424 22.8154C142.983 22.2017 142.418 21.6372 141.731 21.1217C141.043 20.5816 140.295 20.0661 139.485 19.5752C138.675 19.0597 137.926 18.4951 137.239 17.8814C136.551 17.2431 135.974 16.5313 135.508 15.7457C135.066 14.9357 134.845 13.9783 134.845 12.8737Z" fill="#C80000"/>
<path d="M123.508 26.9763C123.803 26.9272 124.085 26.8167 124.355 26.6449C124.551 26.4976 124.735 26.2889 124.907 26.0189C125.104 25.7243 125.202 25.3316 125.202 24.8406V11.99C125.202 11.499 125.104 11.1186 124.907 10.8485C124.735 10.554 124.551 10.333 124.355 10.1857C124.085 10.0139 123.803 9.90345 123.508 9.85436C124.858 9.65798 126.122 9.43705 127.301 9.19157C127.792 9.09338 128.283 8.98292 128.773 8.86018C129.264 8.73744 129.719 8.61471 130.136 8.49197C130.578 8.36923 130.958 8.24649 131.277 8.12376C131.596 7.97647 131.83 7.82919 131.977 7.6819V24.8774C131.977 25.3684 132.063 25.7489 132.235 26.0189C132.407 26.2889 132.603 26.4976 132.824 26.6449C133.069 26.8167 133.352 26.9272 133.671 26.9763H123.508ZM128.368 7.6819C127.288 7.6819 126.38 7.31369 125.644 6.57726C124.907 5.84084 124.539 4.93258 124.539 3.85249C124.539 3.33699 124.637 2.84604 124.834 2.37963C125.03 1.91323 125.3 1.5082 125.644 1.16453C125.987 0.796319 126.392 0.514023 126.859 0.317642C127.325 0.121261 127.828 0.0230713 128.368 0.0230713C128.884 0.0230713 129.375 0.121261 129.841 0.317642C130.308 0.514023 130.713 0.796319 131.056 1.16453C131.425 1.5082 131.707 1.91323 131.903 2.37963C132.1 2.84604 132.198 3.33699 132.198 3.85249C132.198 4.39253 132.1 4.89576 131.903 5.36216C131.707 5.82856 131.425 6.2336 131.056 6.57726C130.713 6.92093 130.308 7.19095 129.841 7.38733C129.375 7.58371 128.884 7.6819 128.368 7.6819Z" fill="#C80000"/>
<path d="M101.861 27.013C102.18 26.9639 102.475 26.8534 102.745 26.6816C102.966 26.5343 103.162 26.3134 103.334 26.0188C103.53 25.7242 103.629 25.3192 103.629 24.8037V3.96286C103.629 3.47191 103.53 3.07915 103.334 2.78458C103.162 2.49001 102.966 2.26908 102.745 2.1218C102.475 1.94996 102.192 1.8395 101.898 1.79041H113.865C115.51 1.79041 116.884 2.06043 117.989 2.60047C119.093 3.11597 119.94 3.79103 120.529 4.62564C121.119 5.43571 121.438 6.31942 121.487 7.27678C121.56 8.23413 121.364 9.14239 120.898 10.0016C120.431 10.8607 119.695 11.6094 118.688 12.2477C117.707 12.8613 116.467 13.2418 114.969 13.3891C116.663 13.5364 118.075 13.9782 119.204 14.7147C120.333 15.4266 121.155 16.298 121.671 17.329C122.211 18.3354 122.444 19.4033 122.371 20.5324C122.321 21.6616 121.966 22.7172 121.303 23.6991C120.664 24.6564 119.719 25.4542 118.467 26.0925C117.24 26.7061 115.706 27.013 113.865 27.013H101.861ZM110.477 13.3155H110.809H111.214C111.95 13.3155 112.564 13.0332 113.055 12.4686C113.546 11.904 113.914 11.2044 114.159 10.3698C114.405 9.53515 114.528 8.62689 114.528 7.64499C114.528 6.63854 114.405 5.71801 114.159 4.88339C113.914 4.04878 113.546 3.34917 113.055 2.78458C112.564 2.21999 111.95 1.93769 111.214 1.93769H110.477V13.3155ZM110.477 26.8289H111.214C112.147 26.8289 112.92 26.4975 113.533 25.8347C114.172 25.1719 114.638 24.3496 114.933 23.3677C115.252 22.3858 115.411 21.318 115.411 20.1642C115.411 18.9859 115.252 17.9059 114.933 16.924C114.638 15.9421 114.172 15.1197 113.533 14.4569C112.92 13.7941 112.147 13.4628 111.214 13.4628H110.809H110.477V26.8289Z" fill="#C80000"/>
<path d="M79.5138 18.581L84.7056 12.4687C85.2211 11.8795 85.5402 11.3149 85.663 10.7749C85.7857 10.2103 85.8225 9.71935 85.7734 9.30204C85.6998 8.81109 85.5525 8.35696 85.3316 7.93965H90.6707C89.9588 8.35696 89.2715 8.81109 88.6087 9.30204C88.0195 9.71935 87.3936 10.2103 86.7308 10.7749C86.0926 11.3149 85.528 11.8673 85.037 12.4318L84.8161 12.6896L90.0079 24.8774C90.2043 25.3684 90.4497 25.7489 90.7443 26.0189C91.0634 26.2889 91.358 26.4976 91.628 26.6449C91.9471 26.8167 92.2663 26.9272 92.5854 26.9763H82.4227C82.7418 26.9272 82.9873 26.8167 83.1591 26.6449C83.3064 26.4976 83.4046 26.2889 83.4537 26.0189C83.5028 25.7243 83.4292 25.3316 83.2328 24.8406L80.3239 17.9919L79.5138 18.9124V24.8774C79.5138 25.3684 79.5997 25.7489 79.7716 26.0189C79.9679 26.2889 80.1643 26.4976 80.3607 26.6449C80.6062 26.8167 80.8885 26.9272 81.2076 26.9763H71.0449C71.3395 26.9272 71.6218 26.8167 71.8918 26.6449C72.1127 26.4976 72.3091 26.2889 72.481 26.0189C72.6773 25.7243 72.7755 25.3316 72.7755 24.8406V4.36798C72.7755 3.87703 72.6773 3.49655 72.481 3.22652C72.3091 2.93195 72.125 2.71103 71.9286 2.56374C71.6586 2.39191 71.3763 2.28144 71.0817 2.23235C72.4319 2.03597 73.6961 1.81504 74.8743 1.56957C75.3653 1.47138 75.8562 1.36091 76.3472 1.23817C76.8381 1.11544 77.2923 0.992699 77.7096 0.869961C78.1269 0.747224 78.4951 0.612212 78.8142 0.464927C79.1333 0.317643 79.3665 0.170357 79.5138 0.0230713V18.581Z" fill="white"/>
<path d="M56.5532 27.1235C56.0868 27.1235 55.5222 27.0744 54.8594 26.9762C54.2212 26.8535 53.5952 26.608 52.9815 26.2398C52.3924 25.8716 51.8769 25.3438 51.435 24.6565C51.0177 23.9446 50.8091 22.9873 50.8091 21.7844C50.8091 20.5325 51.0668 19.5138 51.5823 18.7283C52.1224 17.9428 52.7852 17.3045 53.5707 16.8136C54.3562 16.3226 55.2031 15.9421 56.1113 15.6721C57.0441 15.3775 57.9033 15.1075 58.6888 14.862C59.4744 14.6166 60.1249 14.3588 60.6404 14.0888C61.1804 13.7942 61.4504 13.4015 61.4504 12.9105C61.475 11.3149 61.4259 10.1121 61.3031 9.30202C61.1804 8.46741 60.7754 8.0501 60.088 8.0501C59.6953 8.0501 59.3884 8.14829 59.1675 8.34467C58.9711 8.5165 58.8238 8.76198 58.7257 9.08109C58.6275 9.40021 58.5661 9.75615 58.5415 10.1489C58.5415 10.5417 58.5415 10.9467 58.5415 11.364C58.5415 12.3459 58.2715 13.1314 57.7315 13.7206C57.216 14.3097 56.4796 14.6043 55.5222 14.6043C55.2031 14.6043 54.8594 14.5429 54.4912 14.4202C54.1475 14.2974 53.8284 14.1133 53.5339 13.8679C53.2393 13.5978 52.9938 13.2664 52.7974 12.8737C52.6256 12.4809 52.5397 12.0268 52.5397 11.5113C52.5397 10.3576 53.0552 9.43703 54.0862 8.7497C55.1172 8.03782 56.86 7.68188 59.3148 7.68188C61.0331 7.68188 62.4569 7.85372 63.5861 8.19738C64.7398 8.54105 65.6481 9.04427 66.3108 9.70706C66.9982 10.3453 67.4768 11.1431 67.7469 12.1004C68.0414 13.0332 68.1887 14.0888 68.1887 15.2671V22.9627C68.1887 23.5519 68.2992 23.9692 68.5201 24.2146C68.7411 24.4356 68.962 24.546 69.1829 24.546C69.3547 24.546 69.502 24.5092 69.6248 24.4356C69.7475 24.3374 69.8457 24.2269 69.9193 24.1042C70.0175 23.9814 70.0912 23.8342 70.1403 23.6623L70.3244 23.7728C70.128 24.411 69.8211 24.9756 69.4038 25.4666C69.0602 25.8839 68.5692 26.2644 67.931 26.608C67.3173 26.9517 66.544 27.1235 65.6112 27.1235C64.8503 27.1235 64.1998 27.0008 63.6597 26.7553C63.1442 26.4853 62.7146 26.1293 62.371 25.6875C62.0518 25.2456 61.8186 24.7179 61.6714 24.1042C61.5241 23.4905 61.4504 22.8154 61.4504 22.079V21.674C61.2786 22.6313 61.0208 23.4537 60.6772 24.141C60.3335 24.8283 59.9408 25.3929 59.4989 25.8348C59.0571 26.2766 58.5784 26.608 58.0629 26.829C57.5474 27.0253 57.0441 27.1235 56.5532 27.1235ZM61.4504 13.9415C61.1804 14.3097 60.8245 14.6166 60.3826 14.862C59.9653 15.1075 59.5357 15.4389 59.0939 15.8562C58.6766 16.249 58.3084 16.8136 57.9892 17.55C57.6947 18.2619 57.5474 19.2806 57.5474 20.6062C57.5474 21.3671 57.7192 22.0054 58.0629 22.5209C58.4065 23.0364 58.8975 23.2941 59.5357 23.2941C59.9776 23.2941 60.4072 22.9873 60.8245 22.3736C61.2418 21.7353 61.4504 20.6062 61.4504 18.986V13.9415Z" fill="white"/>
<path d="M40.7048 27.1235C39.1829 27.1235 37.845 26.878 36.6913 26.3871C35.5376 25.8716 34.5679 25.172 33.7824 24.2883C33.0215 23.4046 32.4446 22.3736 32.0518 21.1953C31.6836 20.017 31.4995 18.7528 31.4995 17.4027C31.4995 16.0526 31.6836 14.7884 32.0518 13.6101C32.4446 12.4318 33.0215 11.4008 33.7824 10.5171C34.5679 9.63341 35.5376 8.94608 36.6913 8.45513C37.845 7.93963 39.1829 7.68188 40.7048 7.68188C42.3495 7.68188 43.7119 7.95191 44.792 8.49195C45.8721 9.032 46.6944 9.70706 47.259 10.5171C47.8236 11.3272 48.1305 12.2109 48.1796 13.1683C48.2532 14.1011 48.0814 14.9725 47.6641 15.7826C47.2713 16.5926 46.6453 17.2677 45.7862 17.8077C44.9516 18.3478 43.9206 18.6178 42.6932 18.6178C41.6622 18.6178 40.7907 18.5564 40.0789 18.4337C39.367 18.311 38.7779 18.1882 38.3115 18.0655C38.5569 18.8019 38.876 19.4892 39.2688 20.1275C39.6616 20.7657 40.1402 21.3303 40.7048 21.8213C41.2694 22.3122 41.9199 22.705 42.6564 22.9995C43.3928 23.2696 44.2397 23.4046 45.197 23.4046C45.8844 23.4046 46.4735 23.3432 46.9645 23.2205C47.4554 23.0732 47.8727 22.9136 48.2164 22.7418C48.6091 22.5454 48.9283 22.3245 49.1737 22.079L49.321 22.3368C48.56 23.245 47.7254 24.0428 46.8172 24.7301C46.0316 25.3438 45.1111 25.8961 44.0556 26.3871C43.0246 26.878 41.9077 27.1235 40.7048 27.1235ZM40.7048 8.0501C40.0911 8.0501 39.5634 8.34467 39.1215 8.93381C38.6797 9.52295 38.336 10.2839 38.0905 11.2167C37.845 12.125 37.7223 13.156 37.7223 14.3097C37.7469 15.4389 37.9064 16.5435 38.201 17.6236C38.8392 17.7955 39.4529 17.82 40.042 17.6973C40.6312 17.55 41.1467 17.2554 41.5885 16.8136C42.0549 16.3717 42.4232 15.7703 42.6932 15.0093C42.9632 14.2483 43.0982 13.3155 43.0982 12.2109C43.0982 11.7445 43.0491 11.2658 42.9509 10.7749C42.8527 10.2594 42.6932 9.80525 42.4723 9.41249C42.2759 9.01972 42.0304 8.70061 41.7358 8.45513C41.4413 8.18511 41.0976 8.0501 40.7048 8.0501Z" fill="white"/>
<path d="M27.7295 7.9396H30.3806V8.23417H27.7295L27.6926 22.1894C27.6926 22.9013 27.7786 23.4782 27.9504 23.92C28.1468 24.3373 28.4291 24.546 28.7973 24.546C29.0919 24.546 29.3251 24.4355 29.4969 24.2146C29.5951 24.1164 29.6687 24.006 29.7178 23.8832L30.0124 24.0673C29.7424 24.6565 29.3864 25.172 28.9446 25.6138C28.5764 26.0066 28.0854 26.3625 27.4717 26.6816C26.858 26.9762 26.1216 27.1235 25.2624 27.1235C24.526 27.1235 23.8878 26.9639 23.3477 26.6448C22.8077 26.3011 22.3536 25.8716 21.9853 25.3561C21.6417 24.816 21.3839 24.2023 21.2121 23.515C21.0403 22.8277 20.9544 22.1158 20.9544 21.3794V8.23417H20.9175H18.7083V7.9396H19.2606C20.5861 7.9396 21.7644 7.64503 22.7954 7.05589C23.851 6.46675 24.7469 5.81624 25.4834 5.10436C26.3425 4.26975 27.0912 3.31239 27.7295 2.2323V7.9396Z" fill="white"/>
<path d="M18.337 19.5751C18.337 20.8761 18.0793 22.0053 17.5638 22.9627C17.0728 23.8955 16.3732 24.681 15.4649 25.3192C14.5567 25.9329 13.4766 26.3993 12.2247 26.7184C10.9727 27.013 9.61036 27.1603 8.1375 27.1603C6.81194 27.1603 5.64593 27.0498 4.63948 26.8289C3.63303 26.5834 2.78614 26.3134 2.09881 26.0188C1.28875 25.6752 0.589141 25.2824 0 24.8406V17.0713H0.147285C0.417308 18.8632 0.895985 20.4465 1.58332 21.8212C1.87789 22.4104 2.23382 22.9872 2.65113 23.5518C3.06844 24.1164 3.54712 24.6196 4.08716 25.0615C4.65176 25.5033 5.28999 25.8593 6.00187 26.1293C6.7383 26.3993 7.56064 26.5343 8.4689 26.5343C9.79446 26.5343 10.8009 26.117 11.4882 25.2824C12.2001 24.4232 12.5561 23.38 12.5561 22.1526C12.5561 20.8516 12.2492 19.8206 11.6355 19.0596C11.0218 18.2741 10.2486 17.6113 9.31579 17.0713C8.40753 16.5312 7.41335 16.0525 6.33326 15.6352C5.25317 15.1934 4.24672 14.6779 3.31392 14.0887C2.40566 13.4996 1.64468 12.7754 1.031 11.9163C0.417308 11.0326 0.110464 9.86656 0.110464 8.41826C0.110464 7.28908 0.343665 6.30717 0.810068 5.47256C1.27647 4.61339 1.91471 3.90152 2.72478 3.33692C3.55939 2.77233 4.55357 2.34275 5.7073 2.04818C6.88558 1.75361 8.17433 1.60632 9.57353 1.60632C10.6782 1.60632 11.6355 1.64314 12.4456 1.71679C13.2802 1.79043 13.9675 1.8518 14.5076 1.90089C15.0722 1.94999 15.4895 1.96226 15.7595 1.93771C16.0295 1.91317 16.1645 1.8027 16.1645 1.60632H16.4223V10.2961H16.2382C15.9927 8.74965 15.5877 7.36272 15.0231 6.13534C14.7776 5.61984 14.483 5.11662 14.1394 4.62567C13.8203 4.11017 13.4398 3.65604 12.9979 3.26328C12.5561 2.87052 12.0406 2.5514 11.4514 2.30593C10.8868 2.06045 10.2609 1.93771 9.57353 1.93771C8.86166 1.93771 8.26024 2.04818 7.76929 2.26911C7.27834 2.49003 6.88558 2.77233 6.59101 3.116C6.29644 3.45966 6.08779 3.8647 5.96505 4.3311C5.84231 4.7975 5.78094 5.2639 5.78094 5.73031C5.78094 6.8104 6.08779 7.68183 6.70147 8.34462C7.33971 9.0074 8.11296 9.59654 9.02122 10.112C9.95402 10.6275 10.9605 11.1308 12.0406 11.6217C13.1452 12.0881 14.1516 12.6527 15.0599 13.3155C15.9927 13.9783 16.766 14.8129 17.3796 15.8193C18.0179 16.8012 18.337 18.0532 18.337 19.5751Z" fill="white"/>
<rect x="0.0817871" y="29.8401" width="94.9171" height="6.13688" fill="#D9D9D9"/>
<path d="M99.4993 29.8401H192.575L197.689 35.977H99.4993V29.8401Z" fill="#C80000"/>
</svg>
